HIERARCHY
ROOT Hips
{
	OFFSET 0.00000 0.00000 0.00000
	CHANNELS 6 Xposition Yposition Zposition Zrotation Yrotation Xrotation 
	JOINT LHipJoint
	{
		OFFSET 0 0 0
		CHANNELS 3 Zrotation Yrotation Xrotation
		JOINT LeftHip
		{
			OFFSET 1.44361 -1.63093 0.70831
			CHANNELS 3 Zrotation Yrotation Xrotation
			JOINT LeftKnee
			{
				OFFSET 2.20103 -6.04728 0.00000
				CHANNELS 3 Zrotation Yrotation Xrotation
				JOINT LeftAnkle
				{
					OFFSET 2.54154 -6.98283 0.00000
					CHANNELS 3 Zrotation Yrotation Xrotation
					JOINT LeftToe
					{
						OFFSET 0.05971 -0.16406 1.77582
						CHANNELS 3 Zrotation Yrotation Xrotation
						End Site
						{
							OFFSET 0.00000 -0.00000 0.90832
						}
					}
				}
			}
		}
	}
	JOINT RHipJoint
	{
		OFFSET 0 0 0
		CHANNELS 3 Zrotation Yrotation Xrotation
		JOINT RightHip
		{
			OFFSET -1.65838 -1.63093 0.70830
			CHANNELS 3 Zrotation Yrotation Xrotation
			JOINT RightKnee
			{
				OFFSET -2.26926 -6.23475 0.00000
				CHANNELS 3 Zrotation Yrotation Xrotation
				JOINT RightAnkle
				{
					OFFSET -2.34808 -6.45129 0.00000
					CHANNELS 3 Zrotation Yrotation Xrotation
					JOINT RightToe
					{
						OFFSET -0.18633 -0.51195 1.68539
						CHANNELS 3 Zrotation Yrotation Xrotation
						End Site
						{
							OFFSET -0.00000 -0.00000 0.88927
						}
					}
				}
			}
		}
	}
	JOINT lowerback
	{
		OFFSET 0 0 0
		CHANNELS 3 Zrotation Yrotation Xrotation
		JOINT Chest
		{
			OFFSET -0.10393 2.01691 0.06920
			CHANNELS 3 Zrotation Yrotation Xrotation
			JOINT Chest2
			{
				OFFSET 0.04092 2.01302 -0.05283
				CHANNELS 3 Zrotation Yrotation Xrotation
				JOINT lowerneck
				{
					OFFSET 0 0 0
					CHANNELS 3 Zrotation Yrotation Xrotation
					JOINT Neck
					{
						OFFSET -0.02870 1.58978 -0.03113
						CHANNELS 3 Zrotation Yrotation Xrotation
						JOINT Head
						{
							OFFSET 0.11532 1.54326 -0.29195
							CHANNELS 3 Zrotation Yrotation Xrotation
							End Site
							{
								OFFSET 0.04056 1.59999 -0.09535
							}
						}
					}
				}
				JOINT LeftCollar
				{
					OFFSET 0 0 0
					CHANNELS 3 Zrotation Yrotation Xrotation
					JOINT LeftShoulder
					{
						OFFSET 3.30641 1.15764 0.01104
CHANNELS 3 Zrotation Xrotation Yrotation
						JOINT LeftElbow
						{
OFFSET 0 -4.632080 0.000000
CHANNELS 3 Zrotation Xrotation Yrotation
							JOINT LeftWrist
							{
OFFSET 0 -3.419240 -0.000000
CHANNELS 3 Zrotation Xrotation Yrotation
								JOINT lhand
								{
									OFFSET 0 0 0
CHANNELS 3 Zrotation Xrotation Yrotation
									JOINT LFingers
									{
OFFSET 0 -0.625370 -0.000000
CHANNELS 3 Zrotation Xrotation Yrotation
										End Site
										{
OFFSET 0 -0.504190 -0.000000
										}
									}
								}
								JOINT LThumb
								{
OFFSET 0 0.000000 0.000000
CHANNELS 3 Zrotation Xrotation Yrotation
									End Site
									{
OFFSET 0 -0.511890 0.511890
									}
								}
							}
						}
					}
				}
				JOINT RightCollar
				{
					OFFSET 0 0 0
					CHANNELS 3 Zrotation Yrotation Xrotation
					JOINT RightShoulder
					{
						OFFSET -3.78081 1.02180 -0.16609
CHANNELS 3 Zrotation Xrotation Yrotation
						JOINT RightElbow
						{
OFFSET 0 -4.406400 -0.000000
CHANNELS 3 Zrotation Xrotation Yrotation
							JOINT RightWrist
							{
OFFSET 0 -3.446750 0.000000
CHANNELS 3 Zrotation Xrotation Yrotation
								JOINT rhand
								{
									OFFSET 0 0 0
CHANNELS 3 Zrotation Xrotation Yrotation
									JOINT RFingers
									{
OFFSET 0 -0.513670 -0.000000
CHANNELS 3 Zrotation Xrotation Yrotation
										End Site
										{
OFFSET 0 -0.414140 -0.000000
										}
									}
								}
								JOINT RThumb
								{
OFFSET 0 0.000000 0.000000
CHANNELS 3 Zrotation Xrotation Yrotation
									End Site
									{
OFFSET 0 -0.420460 0.420460
									}
								}
							}
						}
					}
				}
			}
		}
	}
}
MOTION
Frames: 5
Frame Time: 0.008333333333333333
9.870348 12.716406 -8.691946 4.302063 3.472672 1.592982 0.000000 0.000000 0.000000 -12.433380 -17.122925 -43.806254 0.000000 0.000000 0.000000 0.000000 0.000000 0.000000 0.000000 0.000000 0.000000 0.000000 0.000000 0.000000 6.689911 6.802066 -43.331618 0.000000 0.000000 0.000000 0.000000 0.000000 0.000000 0.000000 0.000000 0.000000 -6.518547 1.314138 13.032197 0.949281 1.094284 8.689666 4.541219 0.264943 1.753488 -1.638014 0.873746 -10.349392 1.316491 1.286621 31.895653 0.959321 0.564688 12.176973 0.000000 0.000000 0.000000 84.776029 -62.549375 -19.821052 31.908185 -42.473845 12.678834 48.089653 -6.813219 26.652829 0.000000 0.000000 0.000000 -7.125000 0.000000 0.000000 10.330597 -6.410280 11.599652 0.000000 0.000000 0.000000 -85.166844 -54.698185 22.070827 -37.509292 -46.523045 -16.608611 -29.010497 16.359459 24.905492 0.000000 0.000000 0.000000 7.125000 0.000000 0.000000 0.604040 57.943310 -0.191282
9.858845 12.707019 -8.689037 3.308989 3.360417 1.335945 0.000000 0.000000 0.000000 -11.222341 -16.713174 -43.868761 0.000000 0.000000 0.000000 0.000000 0.000000 0.000000 0.000000 0.000000 0.000000 0.000000 0.000000 0.000000 7.970333 7.146797 -42.955055 0.000000 0.000000 0.000000 0.000000 0.000000 0.000000 0.000000 0.000000 0.000000 -5.663842 1.325013 13.151790 1.238844 1.189251 8.764999 4.350656 0.337830 1.756265 -1.646641 0.847037 -10.315577 1.314673 1.250062 31.839558 0.954363 0.547665 12.147719 0.000000 0.000000 0.000000 84.800886 -62.575125 -19.852157 31.919556 -42.482935 12.686503 48.045359 -6.610658 26.432087 0.000000 0.000000 0.000000 -7.125000 0.000000 0.000000 10.366990 -6.122039 11.595157 0.000000 0.000000 0.000000 -85.195933 -54.681955 22.048680 -37.511275 -46.524334 -16.610032 -29.110290 16.400976 24.907475 0.000000 0.000000 0.000000 7.125000 0.000000 0.000000 0.491521 57.968729 -0.155847
9.847342 12.697631 -8.686128 2.315915 3.248162 1.078909 0.000000 0.000000 0.000000 -10.011302 -16.303423 -43.931268 0.000000 0.000000 0.000000 0.000000 0.000000 0.000000 0.000000 0.000000 0.000000 0.000000 0.000000 0.000000 9.250755 7.491529 -42.578491 0.000000 0.000000 0.000000 0.000000 0.000000 0.000000 0.000000 0.000000 0.000000 -4.809136 1.335888 13.271383 1.528407 1.284218 8.840331 4.160093 0.410716 1.759042 -1.655268 0.820329 -10.281762 1.312855 1.213503 31.783464 0.949404 0.530642 12.118466 0.000000 0.000000 0.000000 84.825744 -62.600875 -19.883262 31.930927 -42.492025 12.694172 48.001065 -6.408096 26.211345 0.000000 0.000000 0.000000 -7.125000 0.000000 0.000000 10.403384 -5.833799 11.590661 0.000000 0.000000 0.000000 -85.225021 -54.665725 22.026533 -37.513258 -46.525623 -16.611453 -29.210083 16.442493 24.909458 0.000000 0.000000 0.000000 7.125000 0.000000 0.000000 0.379001 57.994148 -0.120412
9.840264 12.693830 -8.684930 1.957929 3.168627 1.002324 0.000000 0.000000 0.000000 -9.546330 -16.101790 -43.994497 0.000000 0.000000 0.000000 0.000000 0.000000 0.000000 0.000000 0.000000 0.000000 0.000000 0.000000 0.000000 9.725884 7.683836 -42.477556 0.000000 0.000000 0.000000 0.000000 0.000000 0.000000 0.000000 0.000000 0.000000 -4.541703 1.363397 13.286023 1.639055 1.346623 8.869229 4.118252 0.448702 1.772976 -1.657462 0.794232 -10.268002 1.318538 1.174276 31.743439 0.946204 0.513963 12.099977 0.000000 0.000000 0.000000 84.852892 -62.619124 -19.896587 31.946300 -42.504301 12.704556 47.960177 -6.236747 26.040836 0.000000 0.000000 0.000000 -7.125000 0.000000 0.000000 10.427584 -5.607765 11.581819 0.000000 0.000000 0.000000 -85.251426 -54.650405 21.998595 -37.516152 -46.527493 -16.613550 -29.296805 16.509872 24.916573 0.000000 0.000000 0.000000 7.125000 0.000000 0.000000 0.282708 58.022173 -0.089999
9.838083 12.696210 -8.685624 2.302594 3.125291 1.125388 0.000000 0.000000 0.000000 -9.906796 -16.130416 -44.058525 0.000000 0.000000 0.000000 0.000000 0.000000 0.000000 0.000000 0.000000 0.000000 0.000000 0.000000 0.000000 9.310051 7.707504 -42.681572 0.000000 0.000000 0.000000 0.000000 0.000000 0.000000 0.000000 0.000000 0.000000 -4.924018 1.409311 13.184544 1.551757 1.373001 8.846751 4.240952 0.448074 1.799255 -1.652537 0.768813 -10.276431 1.332520 1.132098 31.721193 0.944948 0.497667 12.093399 0.000000 0.000000 0.000000 84.882576 -62.629073 -19.890240 31.966100 -42.520102 12.717943 47.923056 -6.099932 25.925904 0.000000 0.000000 0.000000 -7.125000 0.000000 0.000000 10.438294 -5.450555 11.568167 0.000000 0.000000 0.000000 -85.274862 -54.636092 21.964251 -37.520052 -46.530005 -16.616392 -29.369063 16.605864 24.929365 0.000000 0.000000 0.000000 7.125000 0.000000 0.000000 0.204367 58.053079 -0.065142
